<svg width="32" height="32" viewBox="0 0 32 32" fill="none" xmlns="http://www.w3.org/2000/svg">
<path fill-rule="evenodd" clip-rule="evenodd" d="M5.3335 15.9999C5.3335 15.2635 5.93045 14.6666 6.66683 14.6666H25.3335C26.0699 14.6666 26.6668 15.2635 26.6668 15.9999C26.6668 16.7363 26.0699 17.3333 25.3335 17.3333H6.66683C5.93045 17.3333 5.3335 16.7363 5.3335 15.9999Z" fill="white"/>
<path fill-rule="evenodd" clip-rule="evenodd" d="M15.0574 5.72378C15.5781 5.20308 16.4223 5.20308 16.943 5.72378L26.2763 15.0571C26.797 15.5778 26.797 16.422 26.2763 16.9427L16.943 26.2761C16.4223 26.7968 15.5781 26.7968 15.0574 26.2761C14.5367 25.7554 14.5367 24.9111 15.0574 24.3904L23.4479 15.9999L15.0574 7.60939C14.5367 7.0887 14.5367 6.24448 15.0574 5.72378Z" fill="white"/>
</svg>
