<svg width="1664" height="490" viewBox="0 0 1664 490" fill="none" xmlns="http://www.w3.org/2000/svg">
<mask id="mask0_42_292" style="mask-type:luminance" maskUnits="userSpaceOnUse" x="1562" y="278" width="18" height="16">
<path d="M1562.73 278.82H1579.4V293.091H1562.73V278.82Z" fill="white"/>
</mask>
<g mask="url(#mask0_42_292)">
<mask id="mask1_42_292" style="mask-type:luminance" maskUnits="userSpaceOnUse" x="1562" y="278" width="18" height="16">
<path d="M1579.36 283.705C1572.02 295.742 1564.97 293.684 1563.5 291.044C1562.03 288.403 1563.21 281.356 1565.56 279.596C1567.91 277.835 1577.3 280.184 1577.3 280.184" fill="white"/>
</mask>
<g mask="url(#mask1_42_292)">
<path d="M1551.76 267.851H1591.12V306.309H1551.76V267.851Z" fill="white"/>
</g>
</g>
<path d="M55.125 343.413C54.9271 344.897 54.6927 346.434 54.4167 348.017C54.1354 349.611 53.8125 351.527 53.4375 353.767C60.3385 354.517 66.9167 354.277 73.1667 353.059C79.4167 351.85 85.526 351.152 91.5 350.975C97.276 350.6 103.151 350.085 109.125 349.434C115.094 348.777 121.344 349.106 127.875 350.413C126.01 352.455 124.146 353.751 122.271 354.309C120.406 354.876 118.547 355.35 116.688 355.725C101.948 358.335 87.2552 360.897 72.6042 363.413C57.9635 365.939 43.276 368.413 28.5417 370.83C25.1771 371.382 21.7708 371.71 18.3125 371.809C14.8646 371.902 11.4635 371.955 8.10417 371.955C6.98958 371.955 5.83333 371.626 4.625 370.975C3.40625 370.319 1.86458 369.715 0 369.163C1.11458 368.038 1.99479 366.96 2.64583 365.934C3.30208 364.902 4 364.298 4.75 364.121C8.48437 363.189 12.2135 362.251 15.9375 361.309C19.6719 360.376 23.4063 359.543 27.1458 358.809C29.3802 358.236 31.5677 357.814 33.7083 357.538C35.8594 357.257 37.8646 356.934 39.7292 356.559C41.4063 345.361 42.9427 334.309 44.3333 323.392C45.7344 312.486 47.4635 301.72 49.5208 291.08C53.6302 269.444 57.875 247.757 62.25 226.017C66.6354 204.283 71.0677 182.507 75.5417 160.684C78.3438 146.684 81.3333 132.741 84.5 118.85C87.6667 104.949 90.7396 91.0066 93.7292 77.017C93.9219 76.267 94.0625 75.4754 94.1458 74.642C94.2396 73.7983 94.2917 72.7202 94.2917 71.4129C92.2344 71.2202 90.276 71.4545 88.4167 72.1212C86.5521 72.7775 84.7813 73.2827 83.1042 73.642C79.5625 74.392 76.0104 75.0535 72.4583 75.6212C68.9167 76.1785 65.375 76.7358 61.8333 77.2879C60.151 77.4702 58.4688 77.3295 56.7917 76.8712C55.1094 76.4025 53.7135 75.3243 52.6042 73.642C52.6042 71.7827 53.1563 70.4337 54.2708 69.6004C55.3958 68.7566 56.7083 68.0535 58.2083 67.4962C62.125 66.1941 66.1302 64.8868 70.2292 63.5795C74.3385 62.2775 78.4427 61.0587 82.5417 59.9337C86.276 58.8243 90.0521 57.7566 93.875 56.7254C97.6927 55.6993 100.906 53.3191 103.521 49.5795C104.646 48.0952 106.276 47.3035 108.417 47.2045C110.568 47.1108 112.484 47.5327 114.167 48.4754C116.219 49.59 118.271 50.142 120.313 50.142C122.365 50.142 124.422 49.9545 126.479 49.5795C134.13 47.9025 141.776 46.8295 149.417 46.3712C157.068 45.9025 164.719 45.8504 172.375 46.2254C173.859 46.2254 175.302 46.3243 176.708 46.517C178.109 46.6993 179.276 47.8191 180.208 49.8712C178.151 51.7358 175.906 52.7618 173.479 52.9545C171.063 53.1368 168.635 53.4129 166.208 53.7879C159.125 55.0952 152.031 56.4493 144.938 57.8504C137.854 59.241 130.672 60.59 123.396 61.892C118.922 62.642 116.313 65.4441 115.563 70.2879C111.271 97.7202 105.901 124.866 99.4583 151.725C93.026 178.59 86.6458 205.548 80.3125 232.6C76.0208 251.074 71.8177 269.548 67.7083 288.017C63.6094 306.475 59.4167 324.939 55.125 343.413Z" fill="white"/>
<path d="M219.664 245.475C224.33 242.116 229.362 241.741 234.768 244.35C234.393 245.475 234.065 246.507 233.789 247.434C233.508 248.366 233.091 249.205 232.539 249.955C231.232 251.621 229.83 253.158 228.33 254.559C226.841 255.965 225.351 257.507 223.851 259.184C213.961 269.074 204.07 279.054 194.185 289.121C184.31 299.194 174.424 309.173 164.539 319.059C162.857 320.736 161.216 322.46 159.622 324.225C158.039 326.001 156.502 327.731 155.018 329.413C155.018 330.715 155.107 331.882 155.289 332.913C155.482 333.939 155.58 335.017 155.58 336.142C156.33 340.793 155.955 345.168 154.455 349.267C152.966 353.376 150.732 357.21 147.747 360.767C145.133 363.934 142.195 366.725 138.935 369.142C135.669 371.569 132.258 373.725 128.705 375.6C124.232 378.21 119.289 379.231 113.872 378.663C107.346 377.923 104.455 374.569 105.205 368.6C105.403 366.543 105.825 364.486 106.476 362.434C107.133 360.376 108.013 358.418 109.122 356.559C111.732 352.835 114.435 349.106 117.226 345.371C120.028 341.632 122.924 337.902 125.914 334.184C127.216 332.501 128.612 330.861 130.101 329.267C131.601 327.684 133.19 325.96 134.872 324.1C133.008 320.559 131.091 317.007 129.122 313.455C127.164 309.913 125.351 306.371 123.685 302.83C122.002 298.913 120.414 294.996 118.914 291.08C117.424 287.163 115.935 283.152 114.435 279.038C113.127 275.319 112.705 271.548 113.164 267.725C113.633 263.892 114.528 260.111 115.851 256.371C118.268 249.288 122.601 242.809 128.851 236.934C135.101 231.059 142.19 226.491 150.122 223.225C158.049 219.965 165.747 218.699 173.205 219.434C176.372 219.632 179.258 220.382 181.872 221.684C183.924 222.616 185.372 224.059 186.205 226.017C187.049 227.975 186.919 230.074 185.81 232.309C183.56 236.975 180.57 241.554 176.851 246.038C176.101 246.777 174.976 247.194 173.476 247.288C171.987 247.387 170.216 247.715 168.164 248.267C168.914 244.533 169.565 241.173 170.122 238.184C170.69 235.199 171.252 232.033 171.81 228.684C170.127 228.684 168.674 228.637 167.455 228.538C166.247 228.444 165.086 228.58 163.976 228.955C151.851 234.179 142.705 242.663 136.539 254.413C134.497 258.527 133.148 262.725 132.497 267.017C131.841 271.309 132.169 275.788 133.476 280.455C134.961 285.861 136.82 291.08 139.06 296.121C141.31 301.152 144.107 306.184 147.455 311.225C149.33 309.548 151.06 307.965 152.643 306.475C154.226 304.975 155.758 303.486 157.247 301.996C165.091 294.538 172.976 287.08 180.893 279.621C188.82 272.152 196.799 264.777 204.83 257.496C207.065 255.262 209.44 253.215 211.955 251.35C214.482 249.475 217.049 247.517 219.664 245.475ZM138.789 357.684C139.716 356.001 140.56 354.184 141.31 352.225C142.06 350.267 141.872 347.882 140.747 345.08C136.83 348.814 133.377 352.59 130.393 356.413C127.403 360.246 124.982 364.496 123.122 369.163C126.841 368.59 129.961 367.277 132.476 365.225C135.002 363.184 137.107 360.668 138.789 357.684Z" fill="white"/>
<path d="M299.963 257.788C299.224 262.819 298.297 267.85 297.172 272.892C296.047 277.934 295.203 282.97 294.651 287.996C294.094 293.413 293.719 298.923 293.526 304.517C293.344 310.111 293.156 315.611 292.963 321.017C292.963 323.819 293.474 326.481 294.505 328.996C295.531 331.507 297.349 333.606 299.963 335.288C293.989 335.481 289.745 334.736 287.234 333.059C284.719 331.376 282.901 327.83 281.776 322.413C279.359 310.663 278.703 299.194 279.817 287.996C280.37 283.345 280.927 278.684 281.484 274.017C282.052 269.35 282.526 264.684 282.901 260.017C283.078 259.267 283.073 258.429 282.88 257.496C282.698 256.569 282.609 255.361 282.609 253.871C280.942 255.538 279.453 256.986 278.151 258.205C276.844 259.413 275.63 260.58 274.505 261.705C270.588 265.996 266.713 270.288 262.88 274.58C259.057 278.871 255.099 283.069 251.005 287.163C248.015 289.955 244.932 292.616 241.755 295.142C238.588 297.658 235.323 300.033 231.963 302.267C229.547 304.142 226.932 305.548 224.13 306.475C221.338 307.408 218.448 307.871 215.463 307.871C207.437 307.496 203.521 303.486 203.713 295.83C204.088 291.179 204.833 286.986 205.942 283.246C209.859 272.236 214.89 261.929 221.047 252.33C227.213 242.72 234.588 233.902 243.172 225.871C245.213 223.83 247.536 222.017 250.151 220.434C252.76 218.84 255.37 217.486 257.984 216.371C259.859 215.444 261.911 214.84 264.151 214.559C266.385 214.267 268.531 214.22 270.588 214.413C275.255 214.595 278.328 215.762 279.817 217.913C281.317 220.054 281.88 223.642 281.505 228.684C281.505 229.241 281.547 229.845 281.63 230.496C281.724 231.152 281.87 231.944 282.067 232.871C283.37 231.762 284.489 230.741 285.422 229.809C286.349 228.866 287.281 227.929 288.213 226.996C290.64 224.762 293.817 223.736 297.734 223.913C302.76 224.288 304.995 226.72 304.442 231.205C303.885 235.679 303.234 240.111 302.484 244.496C301.734 248.871 300.89 253.304 299.963 257.788ZM219.088 298.35C224.505 295.934 230.338 292.027 236.588 286.621C242.838 281.205 248.849 275.048 254.63 268.142C260.422 261.241 265.276 254.429 269.192 247.705C267.317 245.652 266.469 243.319 266.651 240.705C266.844 238.095 267.078 235.444 267.359 232.746C267.651 230.038 266.953 227.569 265.276 225.33C258.745 229.246 252.073 235.402 245.255 243.788C238.448 252.179 232.156 262.069 226.38 273.455C224.323 277.179 222.453 281.007 220.776 284.934C219.094 288.85 218.531 293.324 219.088 298.35Z" fill="white"/>
<path d="M407.137 257.788C406.397 262.819 405.47 267.85 404.345 272.892C403.22 277.934 402.376 282.97 401.824 287.996C401.267 293.413 400.892 298.923 400.699 304.517C400.517 310.111 400.329 315.611 400.137 321.017C400.137 323.819 400.647 326.481 401.678 328.996C402.704 331.507 404.522 333.606 407.137 335.288C401.163 335.481 396.918 334.736 394.407 333.059C391.892 331.376 390.074 327.83 388.949 322.413C386.532 310.663 385.876 299.194 386.991 287.996C387.543 283.345 388.1 278.684 388.657 274.017C389.225 269.35 389.699 264.684 390.074 260.017C390.251 259.267 390.246 258.429 390.053 257.496C389.871 256.569 389.782 255.361 389.782 253.871C388.116 255.538 386.626 256.986 385.324 258.205C384.017 259.413 382.803 260.58 381.678 261.705C377.762 265.996 373.887 270.288 370.053 274.58C366.23 278.871 362.272 283.069 358.178 287.163C355.189 289.955 352.105 292.616 348.928 295.142C345.762 297.658 342.496 300.033 339.137 302.267C336.72 304.142 334.105 305.548 331.303 306.475C328.512 307.408 325.621 307.871 322.637 307.871C314.611 307.496 310.694 303.486 310.887 295.83C311.262 291.179 312.006 286.986 313.116 283.246C317.032 272.236 322.064 261.929 328.22 252.33C334.387 242.72 341.762 233.902 350.345 225.871C352.387 223.83 354.71 222.017 357.324 220.434C359.934 218.84 362.543 217.486 365.157 216.371C367.032 215.444 369.085 214.84 371.324 214.559C373.559 214.267 375.704 214.22 377.762 214.413C382.428 214.595 385.501 215.762 386.991 217.913C388.491 220.054 389.053 223.642 388.678 228.684C388.678 229.241 388.72 229.845 388.803 230.496C388.897 231.152 389.043 231.944 389.241 232.871C390.543 231.762 391.663 230.741 392.595 229.809C393.522 228.866 394.454 227.929 395.387 226.996C397.814 224.762 400.991 223.736 404.907 223.913C409.934 224.288 412.168 226.72 411.616 231.205C411.059 235.679 410.407 240.111 409.657 244.496C408.907 248.871 408.064 253.304 407.137 257.788ZM326.262 298.35C331.678 295.934 337.512 292.027 343.762 286.621C350.012 281.205 356.022 275.048 361.803 268.142C367.595 261.241 372.449 254.429 376.366 247.705C374.491 245.652 373.642 243.319 373.824 240.705C374.017 238.095 374.251 235.444 374.532 232.746C374.824 230.038 374.126 227.569 372.449 225.33C365.918 229.246 359.246 235.402 352.428 243.788C345.621 252.179 339.329 262.069 333.553 273.455C331.496 277.179 329.626 281.007 327.949 284.934C326.267 288.85 325.704 293.324 326.262 298.35Z" fill="white"/>
<path d="M502.852 234.267C504.154 232.408 505.55 230.455 507.039 228.413C508.524 226.361 510.669 224.955 513.477 224.205C513.294 225.319 513.206 226.345 513.206 227.288C513.206 228.22 513.107 228.965 512.914 229.517C511.8 231.949 510.685 234.423 509.56 236.934C508.435 239.449 507.128 241.824 505.643 244.059C497.612 257.132 488.935 269.637 479.602 281.58C470.279 293.512 460.675 305.163 450.789 316.538C447.065 320.83 442.961 324.231 438.477 326.746C434.003 329.272 428.966 330.163 423.373 329.413C418.888 328.856 415.435 327.225 413.018 324.517C410.591 321.809 409.284 317.84 409.102 312.621C408.909 308.705 408.862 304.788 408.956 300.871C409.055 296.955 409.477 293.132 410.227 289.392C412.268 277.84 415.487 266.887 419.873 256.538C424.258 246.179 429.341 236.241 435.123 226.725C437.357 223.366 439.779 220.382 442.393 217.767C447.612 212.725 453.586 211.423 460.31 213.85C463.852 215.158 465.529 217.861 465.352 221.955C465.352 224.569 464.836 226.673 463.81 228.267C462.779 229.85 461.336 230.642 459.477 230.642C456.862 230.449 454.945 231.054 453.727 232.455C452.518 233.861 451.445 235.59 450.518 237.642C446.779 245.658 443.466 253.819 440.581 262.121C437.69 270.429 435.404 279.054 433.727 287.996C432.977 291.736 432.461 295.559 432.185 299.475C431.904 303.392 432.232 307.496 433.164 311.788C436.149 310.106 438.81 308.152 441.143 305.913C443.477 303.679 445.758 301.345 447.998 298.913C457.69 288.845 467.154 278.449 476.393 267.725C485.628 256.991 494.445 245.84 502.852 234.267Z" fill="white"/>
<path d="M834.437 58.8087C837.239 53.2254 840.088 49.9233 842.978 48.892C845.864 47.866 850.76 48.5587 857.666 50.9754C858.416 53.965 858.504 56.7202 857.937 59.2462C857.379 61.7618 856.728 64.2358 855.978 66.6629C852.062 78.2202 848.192 89.741 844.374 101.225C840.551 112.699 836.775 124.215 833.041 135.767C823.343 164.882 813.593 193.986 803.791 223.08C793.999 252.179 784.254 281.283 774.562 310.392C771.572 319.71 769.004 329.126 766.853 338.642C764.713 348.168 762.989 357.689 761.687 367.205C758.697 369.996 755.249 370.173 751.332 367.746C750.582 364.022 750.296 360.152 750.478 356.142C750.671 352.126 751.046 348.163 751.603 344.246C752.905 332.673 754.957 321.34 757.749 310.246C760.551 299.152 763.635 288.095 766.999 277.08C771.843 260.861 776.791 244.725 781.832 228.684C786.874 212.642 791.905 196.595 796.937 180.538C797.687 178.304 798.338 176.069 798.895 173.83C799.463 171.595 799.65 169.262 799.457 166.83C798.525 168.137 797.499 169.538 796.374 171.038C795.26 172.527 794.239 174.017 793.312 175.517C783.228 190.991 772.635 206.007 761.541 220.559C750.442 235.116 738.733 249.199 726.416 262.809C718.775 271.59 710.666 279.991 702.082 288.017C693.499 296.033 684.541 303.679 675.207 310.955C669.249 315.423 663.046 319.522 656.603 323.246C650.171 326.981 643.504 330.251 636.603 333.059C628.197 336.418 619.801 337.814 611.416 337.246C597.983 336.314 590.614 329.507 589.312 316.83C588.937 312.163 588.838 307.455 589.02 302.705C589.213 297.944 589.588 293.324 590.145 288.85C591.27 279.699 593.088 270.694 595.603 261.83C598.114 252.97 600.864 244.257 603.853 235.684C610.572 215.715 617.713 195.887 625.27 176.205C632.822 156.527 640.983 136.986 649.749 117.58C652.551 111.429 655.728 105.465 659.27 99.6837C661.504 96.1316 664.114 93.3296 667.103 91.2879C668.963 89.7879 671.01 88.9962 673.249 88.9129C675.499 88.8191 677.551 89.9754 679.416 92.3921C677.733 94.2671 676.004 96.1368 674.228 97.9962C672.463 99.8608 670.926 101.819 669.624 103.871C668.317 105.929 667.192 108.173 666.249 110.6C665.317 113.017 664.385 115.345 663.457 117.58C653.942 141.277 644.895 165.017 636.312 188.809C627.728 212.59 619.895 236.699 612.812 261.142C610.754 268.798 608.978 276.491 607.478 284.225C605.989 291.965 605.53 299.845 606.103 307.871C606.28 310.481 606.697 313.142 607.353 315.85C608.004 318.559 608.796 321.215 609.728 323.83C611.228 328.298 614.312 329.694 618.978 328.017C621.947 326.892 624.879 325.673 627.77 324.371C630.671 323.064 633.52 321.668 636.312 320.184C649.562 313.277 661.692 304.611 672.707 294.163C679.791 287.637 686.78 281.017 693.687 274.309C700.588 267.59 707.213 260.679 713.562 253.58C732.213 232.694 749.374 210.725 765.041 187.684C780.707 164.642 794.697 140.533 807.02 115.35C810.379 108.632 813.692 101.913 816.957 95.2046C820.218 88.4858 823.437 81.7671 826.603 75.0587C827.905 72.2566 829.166 69.5066 830.374 66.8087C831.593 64.1004 832.947 61.4337 834.437 58.8087Z" fill="white"/>
<path d="M1018.85 252.746C1020.52 253.496 1021.4 254.387 1021.5 255.413C1021.59 256.429 1021.27 257.408 1020.52 258.35C1017.91 261.699 1015.3 265.054 1012.69 268.413C1010.07 271.777 1007.28 274.949 1004.29 277.934C1001.3 281.298 998.178 284.47 994.917 287.455C991.652 290.429 988.339 293.408 984.98 296.392C979.756 301.059 973.881 302.929 967.355 301.996C959.896 300.694 956.355 296.59 956.73 289.684C956.907 287.074 957.277 284.371 957.834 281.58C958.402 278.777 958.964 276.069 959.521 273.455C960.646 269.72 961.86 266.033 963.167 262.392C964.469 258.757 965.678 255.163 966.792 251.621C967.167 250.694 967.49 249.621 967.771 248.413C968.047 247.194 968.469 245.465 969.042 243.225C966.428 245.465 964.282 247.382 962.605 248.975C960.922 250.559 959.334 252.007 957.834 253.309C953.178 256.85 948.61 260.392 944.126 263.934C939.652 267.475 935.084 270.929 930.417 274.288C928.178 275.97 925.756 277.277 923.146 278.205C920.532 279.137 917.823 279.512 915.021 279.33C907.188 278.955 903.646 275.225 904.396 268.142C904.573 264.783 905.042 261.423 905.792 258.059C906.542 254.699 907.282 251.345 908.021 247.996C908.589 246.121 909.198 244.069 909.855 241.83C910.506 239.595 911.198 236.887 911.938 233.705C909.323 235.955 907.131 237.783 905.355 239.184C903.589 240.574 901.865 242.017 900.188 243.517C891.605 251.35 882.969 259.236 874.292 267.163C865.626 275.08 857.001 283.054 848.417 291.08C846.928 292.387 845.344 293.788 843.667 295.288C841.985 296.777 840.214 297.986 838.355 298.913C835.365 300.595 831.818 301.527 827.709 301.705C825.475 301.705 823.751 300.965 822.542 299.475C821.334 297.991 820.73 296.22 820.73 294.163C820.912 292.486 821.188 290.804 821.563 289.121C825.657 274.012 831.344 259.741 838.626 246.309C840.126 243.507 841.756 241.595 843.521 240.58C845.297 239.554 846.928 239.595 848.417 240.705C850.292 242.387 850.943 244.116 850.376 245.892C849.818 247.658 849.261 249.475 848.709 251.35C847.027 255.642 845.396 259.986 843.813 264.371C842.23 268.746 840.594 273.173 838.917 277.642C838.542 278.949 838.167 280.402 837.792 281.996C837.417 283.58 836.855 285.767 836.105 288.559C838.157 286.882 839.74 285.673 840.855 284.934C841.98 284.184 843.011 283.345 843.959 282.413C849.178 276.996 854.303 271.59 859.334 266.184C864.376 260.767 869.594 255.449 875.001 250.225C883.959 241.09 893.193 232.225 902.709 223.642C906.068 220.658 909.709 218.6 913.626 217.475C915.678 217.116 917.777 216.934 919.917 216.934C922.068 216.934 924.172 217.116 926.23 217.475C931.256 218.423 933.396 221.507 932.646 226.725C932.282 229.34 931.777 231.861 931.126 234.288C930.469 236.705 929.771 239.132 929.021 241.559C927.896 245.475 926.631 249.345 925.23 253.163C923.839 256.986 922.959 260.85 922.584 264.767C924.261 265.892 925.615 266.09 926.646 265.35C927.672 264.6 928.652 263.85 929.584 263.1C935.36 258.991 940.761 254.512 945.792 249.663C950.834 244.819 955.688 239.684 960.355 234.267C962.407 231.85 964.506 229.475 966.646 227.142C968.797 224.809 970.902 222.429 972.959 219.996C975.193 217.762 977.615 216.413 980.23 215.955C982.839 215.486 985.542 215.527 988.334 216.08C992.626 217.012 994.589 219.444 994.23 223.371C993.48 228.22 992.261 233.158 990.584 238.184C988.527 244.725 986.422 251.215 984.271 257.642C982.131 264.074 979.943 270.554 977.709 277.08C977.334 278.58 977.006 280.267 976.73 282.142C976.448 284.007 976.126 286.142 975.751 288.559C977.235 287.809 978.49 287.257 979.521 286.892C980.547 286.517 981.438 286.048 982.188 285.475C987.032 281.184 991.792 276.902 996.459 272.621C1001.13 268.33 1005.88 264.038 1010.73 259.746C1012.03 258.444 1013.38 257.225 1014.77 256.1C1016.17 254.975 1017.53 253.861 1018.85 252.746Z" fill="white"/>
<path d="M1104.46 263.663C1104.46 263.663 1105.21 263.85 1106.71 264.225C1106.51 265.158 1106.42 266.184 1106.42 267.309C1106.42 268.423 1106.24 269.444 1105.88 270.371C1104.57 272.429 1103.21 274.533 1101.81 276.684C1100.41 278.824 1098.87 280.824 1097.19 282.684C1087.3 293.324 1075.92 301.72 1063.06 307.871C1057.46 310.481 1051.72 311.975 1045.83 312.35C1039.96 312.725 1034.04 312.069 1028.08 310.392C1020.61 308.34 1014.96 304.423 1011.15 298.642C1007.33 292.85 1005.7 285.663 1006.25 277.08C1006.81 267.387 1008.9 258.486 1012.54 250.371C1016.18 242.246 1021.17 234.923 1027.52 228.392C1035.53 220.007 1044.67 218.236 1054.94 223.08C1059.05 224.944 1061.8 227.741 1063.19 231.475C1064.59 235.215 1064.36 239.319 1062.5 243.788C1061.57 246.402 1060.3 248.871 1058.71 251.205C1057.13 253.538 1055.49 255.736 1053.81 257.788C1046.17 266.554 1036.66 273.173 1025.27 277.642C1024.52 281.199 1024.52 284.371 1025.27 287.163C1026.02 289.955 1027.05 292.569 1028.35 294.996C1030.03 297.804 1031.99 299.949 1034.23 301.434C1036.46 302.923 1039.17 303.486 1042.35 303.121C1044.96 302.746 1047.67 302.236 1050.46 301.58C1053.26 300.929 1055.88 300.038 1058.29 298.913C1065.94 295.554 1073.17 291.402 1079.98 286.455C1086.78 281.512 1092.99 275.684 1098.58 268.975C1099.53 268.048 1100.51 267.163 1101.52 266.33C1102.55 265.486 1103.53 264.595 1104.46 263.663ZM1044.85 232.871C1040.2 236.236 1036.57 240.298 1033.96 245.059C1031.34 249.809 1029.39 256.012 1028.08 263.663C1032 260.861 1035.26 257.783 1037.88 254.434C1040.49 251.074 1042.81 247.34 1044.85 243.225C1045.6 241.741 1046.12 240.116 1046.4 238.35C1046.67 236.574 1046.16 234.746 1044.85 232.871Z" fill="white"/>
<path d="M1107.83 263.371C1113.05 261.137 1118.04 258.434 1122.79 255.267C1127.55 252.09 1132.59 249.34 1137.91 247.017C1143.23 244.684 1149.15 243.699 1155.68 244.059C1148.02 249.85 1140.84 255.319 1134.12 260.455C1127.41 265.58 1120.69 270.569 1113.97 275.413C1110.25 278.205 1107.31 281.382 1105.16 284.934C1103.02 288.475 1101.48 292.58 1100.56 297.246C1096.26 318.882 1089.55 339.96 1080.41 360.475C1077.05 368.126 1073.46 375.632 1069.64 382.996C1065.81 390.371 1061.47 397.418 1056.62 404.142C1053.44 408.434 1050.08 412.58 1046.54 416.58C1042.99 420.59 1039.36 424.559 1035.62 428.475C1030.77 433.694 1024.99 437.059 1018.29 438.559C1016.41 439.111 1014.55 439.527 1012.68 439.809C1010.82 440.085 1008.95 440.132 1007.08 439.955C996.634 439.397 990.671 433.892 989.181 423.434C988.613 419.142 988.655 414.897 989.306 410.705C989.962 406.507 991.035 402.361 992.535 398.267C994.4 393.6 996.358 388.934 998.41 384.267C1000.47 379.6 1002.8 375.027 1005.41 370.559C1023.13 339.21 1046.36 312.34 1075.08 289.955C1084.23 282.871 1089.46 274.111 1090.76 263.663C1091.32 258.996 1092.11 254.382 1093.14 249.809C1094.17 245.241 1095.14 240.621 1096.08 235.955C1097 232.038 1098.31 228.027 1099.99 223.913C1101.67 219.444 1104.94 218.137 1109.79 219.996C1111.09 224.663 1111.42 229.382 1110.76 234.142C1110.11 238.892 1109.36 243.699 1108.51 248.559C1107.68 253.408 1107.45 258.345 1107.83 263.371ZM1078.16 315.434C1078.54 314.486 1078.86 313.413 1079.14 312.205C1079.42 310.996 1079.84 309.179 1080.41 306.746C1077.98 308.986 1076.02 310.751 1074.54 312.059C1073.04 313.361 1071.63 314.673 1070.33 315.996C1049.99 337.814 1032.65 361.501 1018.29 387.059C1016.04 391.168 1014.03 395.371 1012.26 399.663C1010.49 403.955 1008.76 408.335 1007.08 412.809C1006.34 415.236 1005.88 417.71 1005.7 420.225C1005.51 422.736 1005.41 425.298 1005.41 427.913C1005.41 429.215 1005.79 430.475 1006.54 431.684C1007.27 432.902 1007.93 434.168 1008.49 435.475C1012.41 434.918 1015.68 433.663 1018.29 431.705C1020.9 429.746 1023.22 427.548 1025.26 425.121C1028.63 421.007 1031.9 416.809 1035.08 412.517C1038.24 408.236 1041.22 403.856 1044.01 399.371C1051.67 386.132 1058.3 372.517 1063.89 358.517C1069.49 344.527 1074.24 330.168 1078.16 315.434ZM1102.79 199.017C1101.48 198.642 1100.69 197.804 1100.41 196.496C1100.13 195.194 1100.18 193.887 1100.56 192.58C1103.9 183.246 1111.08 178.304 1122.1 177.746C1120.23 180.913 1118.6 183.85 1117.2 186.559C1115.8 189.267 1114.44 191.929 1113.14 194.538C1112.58 195.288 1112.07 196.09 1111.6 196.934C1111.14 197.767 1110.62 198.277 1110.06 198.455C1108.94 198.83 1107.73 199.116 1106.43 199.309C1105.12 199.491 1103.91 199.392 1102.79 199.017Z" fill="white"/>
<path d="M1236.54 236.788C1236.54 237.913 1236.63 238.944 1236.81 239.871C1237 240.804 1237.01 241.548 1236.83 242.1C1235.9 244.158 1234.92 246.262 1233.89 248.413C1232.86 250.554 1231.69 252.652 1230.39 254.705C1224.42 264.402 1217.33 273.074 1209.12 280.725C1200.91 288.382 1191.96 295.194 1182.27 301.163C1173.86 306.569 1165 308.991 1155.68 308.434C1141.68 307.684 1135.53 300.507 1137.2 286.892C1137.58 285.017 1137.95 283.34 1138.33 281.85C1140.19 274.017 1142.61 266.465 1145.6 259.184C1148.58 251.908 1152.04 244.908 1155.95 238.184C1158.01 234.642 1160.06 232.642 1162.1 232.184C1164.15 231.715 1167.52 232.319 1172.18 233.996C1172.56 236.054 1172.37 238.059 1171.62 240.017C1170.87 241.975 1170.13 243.986 1169.39 246.038C1167.52 251.819 1165.65 257.642 1163.79 263.517C1161.92 269.392 1160.15 275.319 1158.47 281.288C1157.35 284.83 1156.88 288.184 1157.08 291.35C1157.08 292.673 1157.4 293.986 1158.06 295.288C1158.71 296.595 1159.22 297.902 1159.6 299.205C1163.32 299.012 1166.63 298.22 1169.52 296.83C1172.42 295.429 1175.27 293.887 1178.06 292.205C1187.77 286.236 1196.72 279.429 1204.93 271.788C1213.14 264.137 1220.6 255.642 1227.31 246.309C1228.61 244.809 1229.82 243.08 1230.93 241.121C1232.06 239.163 1233.92 237.72 1236.54 236.788ZM1177.79 207.684C1175.36 209.559 1172.55 210.262 1169.37 209.788C1166.2 209.319 1163.79 207.871 1162.12 205.455C1160.81 203.402 1160.53 201.027 1161.27 198.33C1162.02 195.621 1163.61 193.616 1166.04 192.309C1169.2 190.434 1172.56 189.408 1176.1 189.225C1179.64 189.033 1183.28 189.408 1187.02 190.35C1185.89 192.965 1184.86 195.345 1183.93 197.496C1183 199.637 1181.97 201.725 1180.85 203.767C1180.29 205.074 1179.27 206.382 1177.79 207.684Z" fill="white"/>
<path d="M1314.61 257.788C1313.87 262.819 1312.95 267.85 1311.82 272.892C1310.7 277.934 1309.85 282.97 1309.3 287.996C1308.74 293.413 1308.37 298.923 1308.18 304.517C1307.99 310.111 1307.81 315.611 1307.61 321.017C1307.61 323.819 1308.12 326.481 1309.15 328.996C1310.18 331.507 1312 333.606 1314.61 335.288C1308.64 335.481 1304.39 334.736 1301.88 333.059C1299.37 331.376 1297.55 327.83 1296.43 322.413C1294.01 310.663 1293.35 299.194 1294.47 287.996C1295.02 283.345 1295.58 278.684 1296.13 274.017C1296.7 269.35 1297.18 264.684 1297.55 260.017C1297.73 259.267 1297.72 258.429 1297.53 257.496C1297.35 256.569 1297.26 255.361 1297.26 253.871C1295.59 255.538 1294.1 256.986 1292.8 258.205C1291.49 259.413 1290.28 260.58 1289.15 261.705C1285.24 265.996 1281.36 270.288 1277.53 274.58C1273.71 278.871 1269.75 283.069 1265.65 287.163C1262.66 289.955 1259.58 292.616 1256.4 295.142C1253.24 297.658 1249.97 300.033 1246.61 302.267C1244.2 304.142 1241.58 305.548 1238.78 306.475C1235.99 307.408 1233.1 307.871 1230.11 307.871C1222.09 307.496 1218.17 303.486 1218.36 295.83C1218.74 291.179 1219.48 286.986 1220.59 283.246C1224.51 272.236 1229.54 261.929 1235.7 252.33C1241.86 242.72 1249.24 233.902 1257.82 225.871C1259.86 223.83 1262.19 222.017 1264.8 220.434C1267.41 218.84 1270.02 217.486 1272.63 216.371C1274.51 215.444 1276.56 214.84 1278.8 214.559C1281.03 214.267 1283.18 214.22 1285.24 214.413C1289.9 214.595 1292.98 215.762 1294.47 217.913C1295.97 220.054 1296.53 223.642 1296.15 228.684C1296.15 229.241 1296.2 229.845 1296.28 230.496C1296.37 231.152 1296.52 231.944 1296.72 232.871C1298.02 231.762 1299.14 230.741 1300.07 229.809C1301 228.866 1301.93 227.929 1302.86 226.996C1305.29 224.762 1308.47 223.736 1312.38 223.913C1317.41 224.288 1319.64 226.72 1319.09 231.205C1318.53 235.679 1317.88 240.111 1317.13 244.496C1316.38 248.871 1315.54 253.304 1314.61 257.788ZM1233.74 298.35C1239.15 295.934 1244.99 292.027 1251.24 286.621C1257.49 281.205 1263.5 275.048 1269.28 268.142C1275.07 261.241 1279.93 254.429 1283.84 247.705C1281.97 245.652 1281.12 243.319 1281.3 240.705C1281.49 238.095 1281.73 235.444 1282.01 232.746C1282.3 230.038 1281.6 227.569 1279.93 225.33C1273.39 229.246 1266.72 235.402 1259.9 243.788C1253.1 252.179 1246.81 262.069 1241.03 273.455C1238.97 277.179 1237.1 281.007 1235.43 284.934C1233.74 288.85 1233.18 293.324 1233.74 298.35Z" fill="white"/>
<path d="M1351.83 223.08C1350.52 229.611 1349.21 236.137 1347.91 242.663C1346.6 249.194 1345.4 255.725 1344.29 262.267C1344.09 262.824 1344.08 263.475 1344.27 264.225C1344.46 264.965 1344.65 265.986 1344.83 267.288C1345.95 266.179 1347.03 265.205 1348.06 264.371C1349.08 263.527 1349.97 262.637 1350.72 261.705C1355.75 255.913 1361.06 250.455 1366.66 245.33C1372.25 240.205 1378.32 235.59 1384.85 231.475C1386.72 230.35 1388.68 229.184 1390.72 227.975C1392.78 226.767 1394.83 225.788 1396.89 225.038C1399.31 224.288 1401.73 223.736 1404.16 223.371C1406.59 222.996 1409.02 222.809 1411.43 222.809C1412.93 222.616 1414.42 222.757 1415.91 223.225C1417.41 223.684 1418.53 224.757 1419.27 226.434C1420.02 228.116 1420.11 229.705 1419.56 231.205C1419 232.694 1418.16 234.09 1417.04 235.392C1415.73 236.892 1414.33 238.486 1412.83 240.163C1411.34 241.83 1409.85 243.319 1408.37 244.621C1405.74 246.871 1403.12 249.027 1400.52 251.08C1397.9 253.121 1395.39 255.173 1392.97 257.225C1390.36 259.283 1387.75 261.34 1385.14 263.392C1382.53 265.434 1379.92 267.486 1377.31 269.538C1371.14 274.944 1367.21 281.007 1365.54 287.725C1363.87 294.434 1364.15 301.804 1366.39 309.83C1367.32 312.439 1368.2 315.1 1369.04 317.809C1369.88 320.517 1370.86 323.173 1371.97 325.788C1377.02 338.465 1382.52 350.871 1388.49 362.996C1394.46 375.121 1400.81 387.059 1407.52 398.809C1408.44 400.684 1409.47 402.413 1410.6 403.996C1411.72 405.58 1412.84 407.21 1413.95 408.892C1415.08 410.751 1416.43 412.423 1418.02 413.913C1419.6 415.413 1421.5 416.439 1423.74 416.996C1417.96 420.731 1412.28 420.361 1406.68 415.892C1403.32 413.277 1400.33 410.194 1397.72 406.642C1395.67 403.85 1393.61 401.007 1391.56 398.121C1389.52 395.231 1387.56 392.194 1385.7 389.017C1381.21 381.184 1376.73 373.251 1372.24 365.225C1367.77 357.21 1363.3 349.189 1358.83 341.163C1355.84 335.564 1353.18 329.777 1350.85 323.809C1348.52 317.85 1346.69 311.606 1345.39 305.08C1345.39 304.512 1345.2 303.996 1344.83 303.538C1344.46 303.069 1344.1 302.455 1343.72 301.705C1341.85 303.205 1340.44 305.074 1339.52 307.309C1338.58 309.548 1337.46 311.6 1336.16 313.475C1335.23 314.777 1334.25 316.038 1333.22 317.246C1332.19 318.455 1331.03 319.34 1329.72 319.913C1326.18 321.772 1322.83 321.21 1319.66 318.225C1319.66 317.668 1319.61 317.017 1319.52 316.267C1319.42 315.517 1319.37 314.767 1319.37 314.017C1322.91 296.673 1326.41 279.283 1329.87 261.85C1333.31 244.408 1336.81 227.007 1340.37 209.642C1344.65 189.309 1349.44 169.116 1354.77 149.059C1360.08 129.007 1366.66 109.371 1374.49 90.1629C1377.48 83.2618 1380.56 76.3608 1383.72 69.4545C1386.9 62.5535 1390.17 55.741 1393.54 49.017C1396.88 42.491 1400.6 36.34 1404.7 30.5587C1408.81 24.767 1413.2 19.1733 1417.87 13.767C1420.1 11.34 1422.48 9.10037 1424.99 7.05871C1427.52 5.00662 1430.37 3.32433 1433.54 2.01704C1441.19 -0.967334 1447.77 -0.639209 1453.27 2.99621C1458.78 6.63683 1462 12.84 1462.93 21.6004C1463.48 27.017 1463.39 32.4337 1462.64 37.8504C1461.9 43.2566 1460.88 48.5691 1459.58 53.7879C1451.55 83.6368 1439.23 110.871 1422.64 135.496C1413.48 149.304 1403.69 162.455 1393.24 174.955C1382.8 187.455 1371.6 199.205 1359.66 210.205C1357.62 212.08 1355.9 214.048 1354.49 216.1C1353.09 218.142 1352.2 220.47 1351.83 223.08ZM1356.87 198.725C1356.69 199.298 1356.64 199.861 1356.72 200.413C1356.82 200.97 1356.87 201.533 1356.87 202.1C1357.24 202.1 1357.66 202.152 1358.12 202.246C1358.59 202.33 1358.92 202.283 1359.1 202.1C1360.04 201.35 1360.93 200.559 1361.77 199.725C1362.61 198.882 1363.31 197.991 1363.87 197.059C1373.94 184.184 1383.59 171.08 1392.83 157.746C1402.06 144.402 1410.5 130.548 1418.16 116.184C1428.98 96.0327 1437.46 74.4858 1443.62 51.5379C1444.92 46.5118 1445.94 41.5275 1446.68 36.5795C1447.43 31.6368 1447.62 26.642 1447.27 21.6004C1447.07 18.991 1446.69 16.4285 1446.14 13.9129C1445.58 11.3868 1444.18 9.28267 1441.93 7.60037C1439.69 7.79829 1437.83 8.54829 1436.33 9.85037C1434.84 11.1577 1433.44 12.5535 1432.14 14.0379C1428.04 18.5275 1424.31 23.0066 1420.95 27.4754C1415.54 34.7566 1410.77 42.3608 1406.66 50.2879C1402.56 58.2202 1398.65 66.2879 1394.93 74.4962C1386.35 94.4545 1379.02 114.84 1372.95 135.642C1366.9 156.434 1361.54 177.465 1356.87 198.725ZM1401.64 236.788C1396.79 238.845 1392.87 241.09 1389.89 243.517C1386.9 245.934 1383.64 249.475 1380.1 254.142C1384.19 252.283 1388.11 250.048 1391.85 247.434C1395.58 244.824 1398.85 241.277 1401.64 236.788Z" fill="white"/>
<path d="M1528.14 267.85C1529.8 266.366 1531.52 264.83 1533.3 263.246C1535.08 261.652 1537.55 260.673 1540.72 260.309C1540.54 261.423 1540.4 262.402 1540.3 263.246C1540.2 264.08 1539.97 264.777 1539.59 265.33C1534.75 272.053 1529.33 278.121 1523.36 283.538C1517.39 288.944 1511.14 293.975 1504.61 298.642C1503.13 299.574 1501.54 300.319 1499.86 300.871C1498.18 301.428 1496.5 301.803 1494.82 301.996C1489.22 302.928 1484.75 302.09 1481.39 299.475C1478.04 296.866 1476.18 292.762 1475.8 287.163C1475.6 285.303 1475.56 283.533 1475.66 281.85C1475.75 280.173 1475.8 278.491 1475.8 276.809C1475.8 275.132 1475.89 273.408 1476.07 271.642C1476.27 269.866 1476.45 267.486 1476.64 264.496C1474.77 266.736 1473.19 268.553 1471.89 269.955C1470.58 271.361 1469.36 272.616 1468.24 273.725C1464.5 278.017 1460.68 282.309 1456.76 286.6C1452.84 290.892 1448.93 295.095 1445.01 299.205C1443.15 300.871 1441.14 302.408 1438.99 303.809C1436.85 305.215 1434.66 306.475 1432.43 307.6C1429.25 309.267 1425.52 310.194 1421.24 310.392C1410.41 310.767 1405.93 305.824 1407.8 295.559C1409.29 285.866 1411.63 276.35 1414.8 267.017C1417.97 257.684 1421.6 248.548 1425.7 239.6C1426.45 238.1 1427.47 236.84 1428.78 235.809C1430.08 234.783 1431.95 234.923 1434.39 236.225C1435.14 238.84 1435.14 241.455 1434.39 244.08C1433.64 246.694 1432.98 249.303 1432.43 251.913C1430.93 258.621 1429.33 265.288 1427.66 271.913C1425.99 278.538 1424.41 285.116 1422.91 291.642C1422.53 293.132 1422.34 294.621 1422.34 296.121C1422.34 297.611 1422.25 299.47 1422.07 301.705C1423.56 301.152 1424.81 300.783 1425.84 300.6C1426.87 300.408 1427.66 299.944 1428.22 299.205C1431.02 296.595 1433.73 293.892 1436.34 291.1C1438.95 288.298 1441.56 285.402 1444.18 282.413C1447.72 278.121 1451.26 273.694 1454.8 269.121C1458.35 264.553 1461.91 260.027 1465.45 255.538C1466.75 253.861 1468.1 252.225 1469.49 250.642C1470.89 249.059 1472.43 247.527 1474.11 246.038C1475.97 243.986 1478.12 242.678 1480.55 242.121C1482.98 241.553 1485.5 241.455 1488.11 241.83C1493.71 242.58 1496.41 245.658 1496.22 251.059C1496.04 255.35 1495.76 259.642 1495.39 263.934C1495.01 268.225 1494.73 272.517 1494.55 276.809C1494.35 278.491 1494.21 280.173 1494.11 281.85C1494.03 283.533 1493.99 285.215 1493.99 286.892C1493.99 287.449 1494.13 288.007 1494.41 288.559C1494.68 289.116 1494.92 289.678 1495.11 290.246C1496.42 291.178 1497.54 291.413 1498.47 290.955C1499.4 290.486 1500.24 289.871 1500.99 289.121C1505.46 285.58 1509.93 282.038 1514.41 278.496C1518.89 274.944 1523.47 271.392 1528.14 267.85Z" fill="white"/>
<mask id="mask2_42_292" style="mask-type:luminance" maskUnits="userSpaceOnUse" x="236" y="367" width="1428" height="123">
<path d="M236.105 367.148H1663.1V489.695H236.105V367.148Z" fill="white"/>
</mask>
<g mask="url(#mask2_42_292)">
<mask id="mask3_42_292" style="mask-type:luminance" maskUnits="userSpaceOnUse" x="236" y="367" width="1427" height="123">
<path d="M243.157 474.21C323.589 468.049 432.787 447.794 502.647 437.518C565.173 428.419 618.011 420.789 679.949 413.742C747.459 405.815 822.022 398.773 892.47 393.195C961.746 387.914 1032.49 384.096 1098.53 381.158C1159.89 378.518 1205.68 377.638 1275.83 376.169C1378.57 374.117 1626.32 360.023 1655.96 372.351C1660.66 374.408 1662.72 377.049 1662.72 379.398C1662.72 381.747 1657.73 385.565 1655.38 385.856C1653.62 385.856 1650.68 384.096 1650.09 382.335C1649.21 380.278 1650.09 375.877 1651.56 374.408C1652.74 372.94 1655.67 372.059 1657.43 372.648C1659.49 373.236 1662.72 376.757 1662.72 378.809C1662.72 381.158 1660.66 383.804 1655.96 385.856C1626.32 398.773 1378.87 387.325 1276.13 389.377C1205.97 390.846 1160.47 392.023 1099.42 394.664C1033.37 397.596 962.917 401.414 893.938 406.7C823.782 412.273 749.219 419.32 681.709 427.247C620.063 434.289 567.225 441.924 504.996 451.023C434.839 461.294 325.35 481.549 281.318 486.247C263.121 488.304 249.324 491.533 242.277 488.304C238.756 486.835 236.407 483.309 236.407 480.966C236.407 478.617 243.157 474.21 243.157 474.21Z" fill="white"/>
</mask>
<g mask="url(#mask3_42_292)">
<path d="M224.667 360.611H1674.54V500.044H224.667V360.611Z" fill="white"/>
</g>
</g>
</svg>
